<svg width="14" height="16" viewBox="0 0 14 16" fill="none" xmlns="http://www.w3.org/2000/svg">
<path d="M12.5714 1.14287H13.4286C13.5893 1.14287 13.7143 1.01787 13.7143 0.857151V0.285723C13.7143 0.125009 13.5893 7.62939e-06 13.4286 7.62939e-06H0.285714C0.125 7.62939e-06 0 0.125009 0 0.285723V0.857151C0 1.01787 0.125 1.14287 0.285714 1.14287H1.14286C1.14286 4.44644 2.72321 6.83929 4.47321 8.00001C2.72321 9.16072 1.14286 11.5536 1.14286 14.8572H0.285714C0.125 14.8572 0 14.9822 0 15.1429V15.7143C0 15.875 0.125 16 0.285714 16H13.4286C13.5893 16 13.7143 15.875 13.7143 15.7143V15.1429C13.7143 14.9822 13.5893 14.8572 13.4286 14.8572H12.5714C12.5714 11.5536 10.9911 9.16072 9.24107 8.00001C10.9911 6.83929 12.5714 4.44644 12.5714 1.14287ZM11.4286 1.14287C11.4286 2.44644 11.1339 3.59822 10.6696 4.57144H3.04464C2.58036 3.59822 2.28571 2.44644 2.28571 1.14287H11.4286ZM10.9196 12H2.79464C3.45536 10.2768 4.64286 9.05358 5.83036 8.57144H7.88393C9.07143 9.05358 10.2589 10.2768 10.9196 12Z" fill="white"/>
</svg>
