<svg aria-hidden="true" style="position: absolute; width: 0; height: 0; overflow: hidden;" version="1.1" xmlns="http://www.w3.org/2000/svg" xmlns:xlink="http://www.w3.org/1999/xlink">
<defs>
<symbol id="path" viewBox="0 0 32 32">
<path d="M29.732 5.156c-0.589-0.601-1.544-0.601-2.134 0l-18.075 18.425-6.948-7.082c-0.589-0.601-1.544-0.601-2.134 0s-0.589 1.574 0 2.175l8.014 8.17c0.589 0.6 1.545 0.6 2.134 0l19.142-19.513c0.589-0.601 0.589-1.574 0-2.175z"></path>
</symbol>
<symbol id="phone" viewBox="0 0 21 32">
<path d="M18.424 0h-15.515c-1.606 0-2.909 1.344-2.909 3v26c0 1.656 1.303 3 2.909 3h15.515c1.606 0 2.909-1.344 2.909-3v-26c0-1.656-1.303-3-2.909-3zM13.576 27.944c0 0.606-0.436 1.056-0.97 1.056h-3.933c-0.479 0-0.915-0.45-0.915-1s0.436-1 0.97-1h3.879c0.533 0 0.97 0.45 0.97 0.944zM17.455 24h-13.576v-20h13.576v20z"></path>
</symbol>
<symbol id="play" viewBox="0 0 32 32">
<path d="M27.866 12.19c2.441 1.354 2.441 4.864 0 6.218l-21.155 11.739c-2.37 1.315-5.281-0.399-5.281-3.109v-23.477c0-2.71 2.911-4.424 5.281-3.109l21.155 11.739z"></path>
</symbol>
</defs>
</svg>
