<svg aria-hidden="true" style="position: absolute; width: 0; height: 0; overflow: hidden;" version="1.1" xmlns="http://www.w3.org/2000/svg" xmlns:xlink="http://www.w3.org/1999/xlink">
<defs>
<symbol id="minus" viewBox="0 0 32 32">
<path d="M0 16c0-8.832 7.168-16 16-16s16 7.168 16 16c0 8.832-7.168 16-16 16s-16-7.168-16-16zM8 17.6h16v-3.2h-16v3.2z"></path>
</symbol>
<symbol id="plus" viewBox="0 0 32 32">
<path d="M0 16c0-8.832 7.168-16 16-16s16 7.168 16 16c0 8.832-7.168 16-16 16s-16-7.168-16-16zM17.6 17.6h6.4v-3.2h-6.4v-6.4h-3.2v6.4h-6.4v3.2h6.4v6.4h3.2v-6.4z"></path>
</symbol>
</defs>
</svg>
