<svg aria-hidden="true" style="position: absolute; width: 0; height: 0; overflow: hidden;" version="1.1" xmlns="http://www.w3.org/2000/svg" xmlns:xlink="http://www.w3.org/1999/xlink">
<defs>
<symbol id="star" viewBox="0 0 34 32">
<path d="M7.337 19.716l-2.421 10.32c-0.028 0.111-0.044 0.239-0.044 0.37 0 0.544 0.276 1.024 0.696 1.306l0.006 0.004c0.258 0.178 0.577 0.284 0.921 0.284 0.337 0 0.651-0.102 0.911-0.277l-0.006 0.004 8.846-5.806 8.844 5.806c0.254 0.168 0.565 0.268 0.9 0.268 0.359 0 0.692-0.115 0.962-0.311l-0.005 0.003c0.407-0.29 0.668-0.76 0.668-1.291 0-0.156-0.023-0.308-0.065-0.45l0.003 0.011-2.969-10.238 7.367-6.53c0.333-0.291 0.542-0.716 0.542-1.19 0-0.514-0.246-0.971-0.627-1.259l-0.004-0.003c-0.239-0.187-0.538-0.307-0.864-0.33l-0.005-0-9.262-0.727-4.007-8.736c-0.132-0.286-0.337-0.52-0.591-0.684l-0.006-0.004c-0.249-0.16-0.553-0.255-0.879-0.255-0.653 0-1.216 0.381-1.48 0.933l-0.004 0.010-4.007 8.736-9.262 0.725c-0.325 0.024-0.619 0.141-0.859 0.325l0.004-0.003c-0.392 0.29-0.644 0.751-0.644 1.271 0 0.451 0.19 0.858 0.494 1.146l0.001 0.001zM11.972 12.795c0.304-0.022 0.58-0.126 0.81-0.29l-0.005 0.003c0.236-0.164 0.422-0.384 0.542-0.641l0.004-0.010 2.923-6.368 2.923 6.368c0.124 0.267 0.309 0.486 0.539 0.647l0.005 0.003c0.238 0.165 0.516 0.263 0.807 0.286l6.453 0.503-5.316 4.711c-0.33 0.291-0.537 0.715-0.537 1.188 0 0.156 0.023 0.308 0.065 0.45l-0.003-0.011 2.036 7.015-6.069-3.984c-0.253-0.169-0.565-0.27-0.9-0.27s-0.647 0.101-0.906 0.274l0.006-0.004-6.343 4.164 1.707-7.271c0.026-0.108 0.041-0.231 0.041-0.358 0-0.45-0.188-0.857-0.49-1.145l-0.001-0.001-4.935-4.74z"></path>
</symbol>
<symbol id="star-fill" viewBox="0 0 34 32">
<path d="M32.404 11.486c-0.108-0.304-0.295-0.558-0.537-0.744l-0.004-0.003c-0.24-0.186-0.538-0.307-0.864-0.334l-0.006-0-9.262-0.724-4.007-8.736c-0.132-0.286-0.337-0.52-0.591-0.684l-0.006-0.004c-0.249-0.16-0.553-0.256-0.879-0.256-0.652 0-1.215 0.381-1.479 0.932l-0.004 0.010-4.007 8.738-9.262 0.724c-0.325 0.024-0.619 0.142-0.859 0.326l0.004-0.003c-0.392 0.29-0.644 0.751-0.644 1.271 0 0.451 0.19 0.858 0.494 1.146l0.001 0.001 6.844 6.569-2.421 10.322c-0.027 0.109-0.042 0.234-0.042 0.362 0 0.545 0.276 1.026 0.696 1.311l0.006 0.004c0.258 0.179 0.578 0.286 0.923 0.286 0.336 0 0.648-0.101 0.908-0.275l-0.006 0.004 8.846-5.808 8.844 5.808c0.254 0.167 0.565 0.266 0.899 0.266 0.36 0 0.693-0.115 0.964-0.31l-0.005 0.003c0.407-0.289 0.669-0.759 0.669-1.29 0-0.157-0.023-0.308-0.065-0.451l0.003 0.011-2.969-10.236 7.367-6.53c0.331-0.291 0.538-0.716 0.538-1.189 0-0.185-0.032-0.362-0.090-0.527l0.003 0.011z"></path>
</symbol>
</defs>
</svg>
